<?xml version="1.0" encoding="UTF-8"?>
<svg id="Layer_1" xmlns="http://www.w3.org/2000/svg" version="1.1" viewBox="0 0 60 60">
  <!-- Generator: Adobe Illustrator 30.1.0, SVG Export Plug-In . SVG Version: 2.1.1 Build 136)  -->
  <path d="M40.68,24.28s0,.34-.08.91c-.15,1.14-.56,3.18-1.68,5.04-2.36,3.88-6.57,7.45-8.28,8.82-1.77-1.43-5.87-4.94-8.18-8.75-1.13-1.86-1.54-3.9-1.68-5.04-.05-.35-.06-.62-.08-.77v-.14c0-2.99,2.42-5.41,5.41-5.41,1.92,0,3.61,1.01,4.57,2.53.95-1.56,2.66-2.6,4.62-2.6,2.99,0,5.41,2.42,5.41,5.41h-.03Z"/>
</svg>