<?xml version="1.0" encoding="UTF-8"?>
<svg id="Layer_1" xmlns="http://www.w3.org/2000/svg" version="1.1" viewBox="0 0 43.92 43.92">
  <!-- Generator: Adobe Illustrator 30.1.0, SVG Export Plug-In . SVG Version: 2.1.1 Build 136)  -->
  <path d="M30.49,5.97H13.12c-4.27,0-7.74,3.47-7.74,7.74v17.37c0,4.27,3.47,7.74,7.74,7.74h17.37c4.27,0,7.74-3.47,7.74-7.74V13.71c0-4.27-3.47-7.74-7.74-7.74ZM33.79,28.17c0,.48-.11.94-.31,1.34-.15.3-.35.57-.58.81-.55.53-1.3.87-2.13.87H12.85c-.85,0-1.62-.35-2.18-.92-.23-.24-.42-.52-.56-.83-.18-.38-.28-.81-.28-1.27v-11.54c0-.52.13-1.01.36-1.43.16-.3.37-.57.62-.79.54-.5,1.26-.8,2.04-.8h17.92c.89,0,1.69.39,2.25,1.01.22.25.41.54.54.86.15.35.23.74.23,1.15v11.54Z"/>
  <path d="M32.13,29.67c-.35.33-.83.52-1.36.52H12.85c-.54,0-1.03-.21-1.4-.57l7.86-6.54,2.55,2.21,2.57-2.15,7.7,6.53Z"/>
  <path d="M18.54,22.42l-7.62,6.34c-.06-.19-.09-.38-.09-.59v-11.54c0-.27.05-.52.15-.75l7.56,6.54Z"/>
  <path d="M32.26,15.26l-10.39,8.71-10.3-8.9c.35-.28.8-.46,1.28-.46h17.92c.59,0,1.12.25,1.49.65Z"/>
  <path d="M32.79,16.63v11.54c0,.23-.04.45-.11.66l-7.48-6.34,7.54-6.32c.03.15.05.3.05.46Z"/>
</svg>