<?xml version="1.0" encoding="UTF-8"?>
<svg xmlns="http://www.w3.org/2000/svg" version="1.1" viewBox="0 0 43.92 43.92">
  <!-- Generator: Adobe Illustrator 30.1.0, SVG Export Plug-In . SVG Version: 2.1.1 Build 136)  -->
  <defs>
    <style>
      .st0 {
        fill: #fff;
      }
    </style>
  </defs>
  <g id="Layer_2">
    <rect x="5.53" y="5.53" width="32.85" height="32.85" rx="7.74" ry="7.74"/>
    <g>
      <path d="M13,14.17h17.92c.59,0,1.12.25,1.49.65l-10.39,8.71-10.3-8.9c.35-.28.8-.46,1.28-.46Z"/>
      <path d="M10.98,16.19c0-.27.05-.52.15-.75l7.56,6.54-7.62,6.34c-.06-.19-.09-.38-.09-.59v-11.54Z"/>
      <path d="M30.92,29.75H13c-.54,0-1.03-.21-1.4-.57l7.86-6.54,2.55,2.21,2.57-2.15,7.7,6.53c-.35.33-.83.52-1.36.52Z"/>
      <path d="M32.94,27.73c0,.23-.04.45-.11.66l-7.48-6.34,7.54-6.32c.03.15.05.3.05.46v11.54Z"/>
    </g>
  </g>
  <g id="Layer_1">
    <g id="lines">
      <path class="st0" d="M33.71,15.04c-.13-.32-.32-.61-.54-.86-.56-.62-1.36-1.01-2.25-1.01H13c-.78,0-1.5.3-2.04.8-.25.22-.46.49-.62.79-.23.42-.36.91-.36,1.43v11.54c0,.46.1.89.28,1.27.14.31.33.59.56.83.56.57,1.33.92,2.18.92h17.92c.83,0,1.58-.34,2.13-.87.23-.24.43-.51.58-.81.2-.4.31-.86.31-1.34v-11.54c0-.41-.08-.8-.23-1.15ZM13,14.17h17.92c.59,0,1.12.25,1.49.65l-10.39,8.71-10.3-8.9c.35-.28.8-.46,1.28-.46ZM10.98,16.19c0-.27.05-.52.15-.75l7.56,6.54-7.62,6.34c-.06-.19-.09-.38-.09-.59v-11.54ZM30.92,29.75H13c-.54,0-1.03-.21-1.4-.57l7.86-6.54,2.55,2.21,2.57-2.15,7.7,6.53c-.35.33-.83.52-1.36.52ZM32.94,27.73c0,.23-.04.45-.11.66l-7.48-6.34,7.54-6.32c.03.15.05.3.05.46v11.54Z"/>
    </g>
  </g>
</svg>