<?xml version="1.0" encoding="UTF-8"?>
<svg id="Layer_1" xmlns="http://www.w3.org/2000/svg" version="1.1" viewBox="0 0 60 60">
  <!-- Generator: Adobe Illustrator 30.1.0, SVG Export Plug-In . SVG Version: 2.1.1 Build 136)  -->
  <defs>
    <style>
      .st0 {
        fill: #504681;
      }
    </style>
  </defs>
  <path class="st0" d="M59.39,16.21s0,1-.24,2.68c-.44,3.36-1.65,9.37-4.95,14.85-6.95,11.43-19.36,21.95-24.4,25.99-5.22-4.21-17.3-14.56-24.1-25.78C2.38,28.47,1.17,22.46.76,19.1c-.15-1.03-.18-1.83-.24-2.27v-.41C.52,7.61,7.65.48,16.46.48c5.66,0,10.64,2.98,13.47,7.45,2.8-4.6,7.84-7.66,13.61-7.66,8.81,0,15.94,7.13,15.94,15.94h-.09Z"/>
</svg>