<?xml version="1.0" encoding="UTF-8"?>
<svg id="Layer_1" xmlns="http://www.w3.org/2000/svg" version="1.1" viewBox="0 0 288 288">
  <!-- Generator: Adobe Illustrator 30.1.0, SVG Export Plug-In . SVG Version: 2.1.1 Build 136)  -->
  <defs>
    <style>
      .st0 {
        fill: #504681;
      }
    </style>
  </defs>
  <g id="Layer_2">
    <path class="st0" d="M232.83,94.41c-9.07-42.54-66.78-46.08-72.55-.17C132.34,29.82,30.73,38.08,41.32,114.03c4.08,29.28,52.98,49.31,75.9,66.05-27.02,21.63-51.62,48.56-63.29,81.66-.06.16-.05.34.04.49.1.18.27.43.57.79.26.31.72.35,1.04.09,12.63-10.61,27.37-19.26,42.34-26.53,24.56-12.99,53.22-17.22,80.35-10.94,5.24-.86-12.12-16.18-13.62-18.28-11.06-11.24-23.32-21.11-35.44-31.12,24.1-20.32,52.29-36.15,82.8-44.45-31.41,7.26-60.55,22.3-86.2,41.68-16.41-13.52-35.88-27.96-52.08-41.64-5.7-5.08-11.89-10.44-14.43-17.48-4.35-12.06,2.41-26.31,9.76-36.24,11.87-14.86,38.24-20.05,56.6-12.64,17.18,7.97,31.87,23.29,35.94,42.17.28,1.99,3.28,1.54,2.87-.48h0c-3.26-22.22,14.7-39.81,36.68-31.94,31.18,10.53,27.86,54.06,8.18,74.66-12.43,14.5-32.25,30.65-30.05,51.73.72,5.15,4.26,10.66,9.7,11.42-20.25-15.34,5.25-42.97,18.05-54.87,18.08-15.42,31.07-39.48,25.8-63.74h0ZM144.38,198.19c10.54,7.69,22.21,14.4,30.86,24.31-18.45-4.07-37.96-7.33-56.53-2.2-20.34,6.58-39.34,17.61-55.54,31.52,4.78-7.16,8.98-14.71,14.82-20.91,13.93-16.57,27.86-33.13,43.65-47.98,7.66,4.97,15.27,10.01,22.74,15.26Z"/>
    <path class="st0" d="M204.18,126.26c-.71.21-1.13-.24-1.37-.48-4.03-4.49-.47-11.22-2.24-16.59-.38-1.27-2.16-2.78-3.88-2.44-8.08.57-11.3,12.61-11.19,19.29-.05,2.57-.34,5.85-2.39,7.57-.54.05-.92-.72-1.31-1.2-2.26-3.78-3.27-8.31-5.26-12.37-1.72-4.21-5.45-5.23-6.48-.02-.8,3.78-1.14,7.57-1.25,11.37l-2.3-11.49c-.4-1.91-3.04-1.8-3.14.17,0,4-.21,7.95-.63,11.88-.39,3.78-2.03,17.1-5.5,6.69-1.63-3.55-3.34-23.71-10.07-16.01-3.14,8.81,1.45,18.84-1.47,27.52-3.63-4.98-3.41-11.81-5.73-17.58-.69-1.72-1.09-3.31-2.82-4.62-2.82-1.63-4.4,1.98-4.87,4.08-2.12,8.94-.33,17.93-1.19,27.01.28,4.41-5.03,8.52-7.48,3.32,8.57-10.93-3-33.06-6.86-16.95-1.74,6.98,3.24,27.16,13.26,19.48,1.68-1.44,2.53-3.67,2.62-5.77,1.4-9.08.47-18.82,3.32-27.65,3.33,5.9,5.05,12.63,8.35,18.66,4.52,6.68,4.74-20.6,5.95-22.85,8.35,19.26,11.01,24.72,14.88-.26l3.74,13.8c.09.41.45.73.89.72.5,0,.89-.42.88-.91.62-6.87.66-14.14,2.49-20.72h0c3.19,4.66,8.91,25.39,14.01,10.58,3.63,5.63,10.68.26,11.89-4.82,4.61,6.44,8.85.09,10.62-4.73-1.54,1.96-3.25,4.29-5.48,5.32h.01ZM122.42,160.21c-2.23-4.77-2.72-10.75-1.37-15.63,2.72,4.72,3.25,10.43,1.37,15.63ZM196.08,115.11c-.31,5.14,0,10.81-3.51,14.4-2.56,1.92-5.03-.71-4.83-3.22.05-5.37,2.64-12.73,8.24-14.08.13.91.12,1.97.1,2.9h0Z"/>
  </g>
</svg>