<?xml version="1.0" encoding="UTF-8"?>
<svg xmlns="http://www.w3.org/2000/svg" version="1.1" viewBox="0 0 44.01 44.79">
  <!-- Generator: Adobe Illustrator 30.1.0, SVG Export Plug-In . SVG Version: 2.1.1 Build 136)  -->
  <g id="Border">
    <path d="M31.91,4.48H11.48c-4.3,0-7.78,3.49-7.78,7.79v20.43c0,4.3,3.48,7.79,7.78,7.79h20.43c4.3,0,7.78-3.49,7.78-7.79V12.27c0-4.3-3.49-7.79-7.78-7.79ZM35.37,28.63c0,4.15-3.37,7.52-7.52,7.52h-12.16c-4.15,0-7.52-3.37-7.52-7.52v-12.16c0-4.15,3.37-7.52,7.52-7.52h12.16c4.15,0,7.52,3.37,7.52,7.52v12.16Z"/>
  </g>
  <g id="MainBody">
    <path d="M27,11.34h-10.47c-3.3,0-5.97,2.67-5.97,5.97v10.47c0,3.3,2.67,5.97,5.97,5.97h10.47c3.3,0,5.97-2.67,5.97-5.97v-10.47c0-3.3-2.67-5.97-5.97-5.97ZM21.86,29.65c-3.85,0-6.98-3.12-6.98-6.97s3.12-6.97,6.98-6.97,6.97,3.12,6.97,6.97-3.12,6.97-6.97,6.97ZM29.09,17.04c-.92,0-1.67-.75-1.67-1.67s.75-1.67,1.67-1.67,1.67.75,1.67,1.67-.75,1.67-1.67,1.67Z"/>
    <path d="M26.26,22.65c0,2.44-1.98,4.43-4.43,4.43s-4.43-1.98-4.43-4.43,1.98-4.43,4.43-4.43,4.43,1.98,4.43,4.43Z"/>
  </g>
</svg>