<?xml version="1.0" encoding="UTF-8"?>
<svg id="Layer_1" xmlns="http://www.w3.org/2000/svg" version="1.1" viewBox="0 0 43.92 43.92">
  <!-- Generator: Adobe Illustrator 30.1.0, SVG Export Plug-In . SVG Version: 2.1.1 Build 136)  -->
  <rect x="21.93" y="20.44" width=".43" height="1.27"/>
  <path d="M29.67,4.08h-14.94c-5.26,0-9.53,4.27-9.53,9.53v14.94c0,5.26,4.27,9.53,9.53,9.53h14.94c5.26,0,9.53-4.27,9.53-9.53v-14.94c0-5.26-4.27-9.53-9.53-9.53ZM10.28,24.99c-.31.37-.77.56-1.37.56-1.18,0-1.77-.73-1.77-2.18,0-.7.15-1.24.46-1.61.3-.37.75-.55,1.34-.55,1.21,0,1.81.72,1.81,2.16,0,.71-.15,1.25-.46,1.62ZM18.27,19.8c-.02.37-.04.69-.07.98-.15.03-.35.06-.59.08-.24.02-.5.03-.77.04s-.55,0-.83,0c-.28,0-.53-.02-.76-.04-.23-.02-.42-.04-.55-.08v-.43h-.39v1.37h.38v-.48c1.14-.08,2.33-.08,3.57,0-.02.97-.16,1.78-.4,2.42s-.63,1.11-1.15,1.42c-.52.31-1.21.47-2.08.47-.91,0-1.64-.19-2.2-.57-.56-.38-.97-.91-1.23-1.59-.26-.68-.39-1.48-.39-2.39s.12-1.68.37-2.33.59-1.15,1.04-1.51c.45-.35.97-.53,1.56-.53s1.03.13,1.35.4c.32.27.49.77.51,1.51.06-.27.08-.55.07-.82-.01-.28-.03-.55-.05-.81.18,0,.38,0,.6-.01.23,0,.46-.02.7-.03.24-.01.47-.02.68-.03s.39-.01.54-.01c.03.21.06.48.08.8.02.32.03.67.04,1.05,0,.38,0,.75-.02,1.12ZM24.92,24.43c-.63.74-1.57,1.12-2.83,1.12-2.43,0-3.65-1.45-3.65-4.34,0-1.58.31-2.74.92-3.48.61-.74,1.54-1.11,2.77-1.11,1.3,0,2.25.36,2.85,1.09.59.73.89,1.8.89,3.22,0,1.6-.31,2.77-.94,3.51ZM37.25,24.45c-.02.34-.06.64-.11.89-.2-.03-.45-.07-.73-.11-.28-.04-.63-.06-1.03-.06-.44,0-.82.02-1.16.06-.34.04-.6.08-.8.11-.03-.21-.05-.49-.06-.83-.02-.35-.02-.71-.01-1.08,0-.37.03-.7.06-.97v-1.61h-.3v1.61c.04.27.06.6.07.97,0,.37,0,.73-.01,1.08-.02.35-.04.62-.08.83-.13-.02-.26-.05-.38-.08s-.27-.05-.43-.08c-.16-.02-.36-.04-.6-.04-.3,0-.59.02-.89.07-.3.05-.54.09-.74.12-.03-.21-.05-.49-.06-.83-.02-.35-.02-.71-.01-1.08,0-.37.03-.7.06-.97v-1.61h-.29v1.61c.04.27.06.6.07.97,0,.37,0,.73-.01,1.08-.02.35-.04.62-.08.83-.13-.02-.27-.05-.42-.08s-.34-.05-.57-.07c-.23-.02-.51-.03-.87-.03s-.7.02-1.01.06-.58.08-.79.12c-.05-.25-.09-.54-.12-.89s-.03-.69-.02-1.03c0-.34.04-.63.08-.85.12-.05.23-.17.34-.37.1-.2.15-.53.15-1,0-.4-.03-.71-.08-.93-.06-.22-.12-.38-.19-.47-.07-.09-.13-.14-.18-.15-.05-.26-.09-.56-.11-.92-.02-.35-.02-.71,0-1.06.02-.35.07-.64.13-.86.25.05.53.08.84.11.31.03.61.04.9.04.37,0,.71,0,1.04-.02s.59-.02.8-.04c-.07.11-.14.29-.22.55-.08.26-.14.54-.18.82-.05.29-.06.54-.04.76.14-.69.41-1.25.81-1.68s.92-.64,1.58-.64c.36,0,.65.06.89.19s.43.39.56.78c-.09.15-.18.31-.27.47-.09.17-.18.36-.26.57l.2.16c.25-.65.59-1.17,1.01-1.57.42-.4.88-.6,1.38-.6.43,0,.76.09,1.02.27s.44.54.56,1.1c.07.32.11.64.1.98,0,.33-.02.66-.05.99-.03.33-.04.66-.04.99,0,.36.02.64.07.85s.11.36.19.46c.08.1.15.17.23.21.05.23.08.51.08.85,0,.34,0,.69-.02,1.03Z"/>
</svg>