<?xml version="1.0" encoding="UTF-8"?>
<svg xmlns="http://www.w3.org/2000/svg" version="1.1" viewBox="0 0 43.92 43.92">
  <!-- Generator: Adobe Illustrator 30.1.0, SVG Export Plug-In . SVG Version: 2.1.1 Build 136)  -->
  <g id="Layer_2">
    <path d="M8.91,25.05c-.63,0-1.27-.2-1.27-1.68,0-.58.12-1.02.34-1.29.2-.25.52-.37.96-.37.65,0,1.31.2,1.31,1.66,0,.54-.1.95-.29,1.22l-.07.08c-.21.26-.54.38-.99.38Z"/>
    <path d="M14.63,25.05c-.8,0-1.45-.16-1.92-.48-.48-.33-.82-.77-1.04-1.36-.24-.62-.36-1.36-.36-2.21s.11-1.56.34-2.15c.22-.57.51-1,.89-1.3.36-.28.77-.42,1.25-.42s.8.09,1.03.28c.2.17.32.57.33,1.14l.99.09c.07-.3.09-.62.08-.95,0-.1,0-.2-.01-.3.03,0,.1,0,.1,0,.13,0,.29,0,.44-.02,0,0,.97-.04,1-.05,0,.1.02.21.02.32.02.32.03.66.04,1.03,0,.26,0,.53,0,.79,0,0-.04.68-.06.86-.05,0-.11.01-.17.02-.23.02-.48.03-.75.04h-.81c-.26,0-.5-.02-.72-.04-.03,0-.06,0-.09,0v-.5h-1.39v2.37h1.38v-.51c.41-.02.83-.03,1.25-.03s.86.01,1.3.03c-.05.69-.16,1.28-.35,1.77-.2.53-.5.91-.94,1.17-.44.26-1.06.4-1.82.4Z"/>
    <path d="M22.09,25.05c-2.15,0-3.15-1.22-3.15-3.84,0-1.45.27-2.51.81-3.16.51-.62,1.31-.93,2.38-.93,1.16,0,1.96.3,2.46.91.51.64.78,1.61.78,2.9,0,1.36-.23,2.37-.7,3.02l-.13.15c-.54.64-1.34.94-2.45.94Z"/>
    <path d="M36.48,24.74c-.3-.04-.67-.07-1.1-.07-.46,0-.85.02-1.22.06-.1.01-.2.02-.29.04,0-.09,0-.18-.01-.27-.02-.35-.02-.7-.01-1.05,0-.36.03-.67.06-.93v-2.17s-1.3,0-1.3,0v2.11c.04.33.06.64.07.98,0,.35,0,.71,0,1.05,0,.08,0,.17-.01.24-.04,0-.28-.05-.28-.05-.21-.03-.43-.05-.69-.05-.34,0-.66.03-.97.08-.07.01-.14.02-.21.03,0-.08,0-.17,0-.27-.02-.35-.02-.7,0-1.05,0-.36.03-.67.06-.93v-2.17s-1.29,0-1.29,0v2.11c.04.33.06.64.07.98,0,.35,0,.71-.01,1.05,0,.09,0,.18-.02.26-.16-.03-.32-.04-.51-.06-.24-.02-.54-.03-.92-.03s-.75.02-1.07.06c-.11.01-.21.03-.31.04-.01-.11-.03-.23-.04-.36-.03-.33-.03-.65-.02-.97,0-.19.01-.38.04-.57.12-.1.22-.24.32-.42.15-.29.21-.68.21-1.24,0-.42-.03-.77-.09-1.04-.09-.33-.17-.52-.28-.67-.03-.04-.07-.09-.12-.13-.03-.19-.05-.41-.07-.66-.02-.33-.02-.67,0-1,0-.12.02-.23.03-.32.12.01.26.03.39.04.33.03.64.04.95.04.38,0,.73,0,1.07-.02h.03c-.07.24-.12.49-.16.76-.05.31-.07.6-.04.88l.99.06c.12-.59.35-1.08.69-1.44.3-.33.69-.48,1.21-.48.28,0,.49.04.65.13.09.05.17.15.24.3-.05.09-.1.18-.15.27-.1.2-.2.41-.29.64l-.13.34,1.02.81.25-.64c.22-.57.52-1.03.89-1.39.33-.31.67-.46,1.04-.46.32,0,.56.06.73.18.08.06.24.23.36.79.07.32.1.59.09.86,0,.33-.02.65-.05.96-.03.34-.04.69-.04,1.03,0,.43.03.72.08.97.07.3.16.5.29.66.04.06.1.12.16.18.02.17.04.36.04.57,0,.33,0,.67-.02,1,0,.13-.02.25-.03.37l-.24-.04Z"/>
  </g>
  <g id="Layer_1">
    <rect x="21.93" y="20.44" width=".43" height="1.27"/>
    <path d="M29.67,4.08h-14.94c-5.26,0-9.53,4.27-9.53,9.53v14.94c0,5.26,4.27,9.53,9.53,9.53h14.94c5.26,0,9.53-4.27,9.53-9.53v-14.94c0-5.26-4.27-9.53-9.53-9.53ZM10.28,24.99c-.31.37-.77.56-1.37.56-1.18,0-1.77-.73-1.77-2.18,0-.7.15-1.24.46-1.61.3-.37.75-.55,1.34-.55,1.21,0,1.81.72,1.81,2.16,0,.71-.15,1.25-.46,1.62h-.01ZM18.27,19.8c-.02.37-.04.69-.07.98-.15.03-.35.06-.59.08s-.5.03-.77.04-.55,0-.83,0-.53-.02-.76-.04c-.23-.02-.42-.04-.55-.08v-.43h-.39v1.37h.38v-.48c1.14-.08,2.33-.08,3.57,0-.02.97-.16,1.78-.4,2.42s-.63,1.11-1.15,1.42-1.21.47-2.08.47-1.64-.19-2.2-.57c-.56-.38-.97-.91-1.23-1.59s-.39-1.48-.39-2.39.12-1.68.37-2.33.59-1.15,1.04-1.51c.45-.35.97-.53,1.56-.53s1.03.13,1.35.4c.32.27.49.77.51,1.51.06-.27.08-.55.07-.82-.01-.28-.03-.55-.05-.81.18,0,.38,0,.6-.01.23,0,.46-.02.7-.03.24-.01.47-.02.68-.03s.39-.01.54-.01c.03.21.06.48.08.8s.03.67.04,1.05c0,.38,0,.75-.02,1.12h-.01ZM24.92,24.43c-.63.74-1.57,1.12-2.83,1.12-2.43,0-3.65-1.45-3.65-4.34,0-1.58.31-2.74.92-3.48s1.54-1.11,2.77-1.11c1.3,0,2.25.36,2.85,1.09.59.73.89,1.8.89,3.22,0,1.6-.31,2.77-.94,3.51h-.01ZM37.25,24.45c-.02.34-.06.64-.11.89-.2-.03-.45-.07-.73-.11s-.63-.06-1.03-.06c-.44,0-.82.02-1.16.06-.34.04-.6.08-.8.11-.03-.21-.05-.49-.06-.83-.02-.35-.02-.71,0-1.08,0-.37.03-.7.06-.97v-1.61h-.3v1.61c.04.27.06.6.07.97,0,.37,0,.73,0,1.08-.02.35-.04.62-.08.83-.13-.02-.26-.05-.38-.08s-.27-.05-.43-.08c-.16-.02-.36-.04-.6-.04-.3,0-.59.02-.89.07s-.54.09-.74.12c-.03-.21-.05-.49-.06-.83-.02-.35-.02-.71-.01-1.08,0-.37.03-.7.06-.97v-1.61h-.29v1.61c.04.27.06.6.07.97,0,.37,0,.73-.01,1.08-.02.35-.04.62-.08.83-.13-.02-.27-.05-.42-.08s-.34-.05-.57-.07-.51-.03-.87-.03-.7.02-1.01.06-.58.08-.79.12c-.05-.25-.09-.54-.12-.89s-.03-.69-.02-1.03c0-.34.04-.63.08-.85.12-.05.23-.17.34-.37.1-.2.15-.53.15-1,0-.4-.03-.71-.08-.93-.06-.22-.12-.38-.19-.47s-.13-.14-.18-.15c-.05-.26-.09-.56-.11-.92-.02-.35-.02-.71,0-1.06s.07-.64.13-.86c.25.05.53.08.84.11s.61.04.9.04c.37,0,.71,0,1.04-.02s.59-.02.8-.04c-.07.11-.14.29-.22.55-.08.26-.14.54-.18.82-.05.29-.06.54-.04.76.14-.69.41-1.25.81-1.68s.92-.64,1.58-.64c.36,0,.65.06.89.19s.43.39.56.78c-.09.15-.18.31-.27.47-.09.17-.18.36-.26.57l.2.16c.25-.65.59-1.17,1.01-1.57s.88-.6,1.38-.6c.43,0,.76.09,1.02.27s.44.54.56,1.1c.07.32.11.64.1.98,0,.33-.02.66-.05.99s-.04.66-.04.99c0,.36.02.64.07.85s.11.36.19.46c.08.1.15.17.23.21.05.23.08.51.08.85s0,.69-.02,1.03v.02Z"/>
  </g>
</svg>